<?xml version="1.0" encoding="UTF-8"?>
<svg version="1.1" xmlns="http://www.w3.org/2000/svg" width="500" height="500">
<path d="M0 0 C165 0 330 0 500 0 C500 165 500 330 500 500 C335 500 170 500 0 500 C0 335 0 170 0 0 Z " fill="#FEFEFE" transform="translate(0,0)"/>
<path d="M0 0 C29.7 0 59.4 0 90 0 C90 0.99 90 1.98 90 3 C88.9378125 3.09796875 87.875625 3.1959375 86.78125 3.296875 C75.85712633 4.39120301 75.85712633 4.39120301 66 9 C64.17564967 12.64870065 64.39808569 16.07956695 65 20 C66.87192602 25.53807547 69.46087046 30.74437863 72 36 C72.5367334 37.11874512 73.0734668 38.23749023 73.62646484 39.39013672 C77.13585025 46.70267492 80.67517219 54.00045029 84.2253418 61.29325867 C91.75298955 76.76163647 99.1052826 92.31329704 106.4375 107.875 C106.78497284 108.61183014 107.13244568 109.34866028 107.490448 110.1078186 C111.07170551 117.70469907 114.63424238 125.30438028 118 133 C128.58134189 112.12502642 138.61229687 91.0077796 148.2409668 69.67944336 C153.49385535 58.05357443 158.88966684 46.49798878 164.34130859 34.96411133 C164.64705811 34.31580856 164.95280762 33.6675058 165.26782227 32.9995575 C166.09293124 31.25047572 166.92016843 29.50239836 167.74755859 27.75439453 C170.30054295 22.13981957 170.64169608 17.10527986 170 11 C167.3583653 6.66771909 163.74401788 6.21011025 159 5 C156.36331422 4.53669711 153.72018783 4.19319226 151.0625 3.875 C150.37865234 3.78863281 149.69480469 3.70226562 148.99023438 3.61328125 C147.32742954 3.40397715 145.66379487 3.20128278 144 3 C144 2.01 144 1.02 144 0 C164.79 0 185.58 0 207 0 C207 0.99 207 1.98 207 3 C205.99839844 3.09796875 204.99679687 3.1959375 203.96484375 3.296875 C193.72901794 4.40018386 186.67295378 5.96990011 179.8984375 14.29492188 C177.71696047 17.40330221 176.02913567 20.65121836 174.37109375 24.0546875 C174.02900879 24.74813263 173.68692383 25.44157776 173.33447266 26.15603638 C169.39429292 34.17374345 165.54704293 42.23674549 161.71826172 50.30810547 C160.50383095 52.86692814 159.28526567 55.42375319 158.06640625 57.98046875 C153.81275554 66.92491145 149.64945806 75.89889611 145.68505859 84.97579956 C143.69428717 89.51833302 141.56274291 93.95475589 139.3125 98.375 C134.80034702 107.25021234 130.64631695 116.28868313 126.47973633 125.32958984 C125.94372803 126.49184082 125.40771973 127.6540918 124.85546875 128.8515625 C124.13846802 130.41124756 124.13846802 130.41124756 123.40698242 132.00244141 C122 135 122 135 120.43632507 137.77305603 C118.84665815 141.34450806 118.6199758 143.73816259 118.61181641 147.62866211 C118.59763168 149.57614601 118.59763168 149.57614601 118.5831604 151.56297302 C118.58853116 152.96776639 118.59468437 154.37255695 118.6015625 155.77734375 C118.59953906 157.23173671 118.59662538 158.68612868 118.59286499 160.14051819 C118.58845289 163.18256326 118.59483551 166.22434327 118.60888672 169.26635742 C118.62596299 173.15110648 118.61614073 177.03523292 118.59816933 180.91995907 C118.58728809 183.92184574 118.59079786 186.92358674 118.5985527 189.92547798 C118.60054354 191.35710284 118.59813496 192.78874124 118.59111404 194.22035027 C118.38257057 204.56401374 118.38257057 204.56401374 122 214 C125.57052496 216.17759444 129.18883749 216.35311016 133.3125 216.625 C134.38113281 216.69976562 135.44976562 216.77453125 136.55078125 216.8515625 C137.76314453 216.92503906 137.76314453 216.92503906 139 217 C139 217.99 139 218.98 139 220 C115.57 220 92.14 220 68 220 C68 219.01 68 218.02 68 217 C68.72445312 216.96261719 69.44890625 216.92523438 70.1953125 216.88671875 C78.03965765 216.40674603 78.03965765 216.40674603 85 213 C86.9523273 209.16784225 87.30620986 205.82477158 87.44921875 201.55859375 C87.49425537 200.27114258 87.53929199 198.98369141 87.58569336 197.65722656 C87.73999533 191.68409982 87.84345702 185.71042228 87.91992188 179.73583984 C87.96382117 176.61923021 88.04627755 173.50766592 88.16601562 170.39306641 C89.00025852 148.14670992 86.06903845 132.67356738 74.83055115 113.28233337 C71.67146843 107.61783028 69.05103204 101.71772781 66.375 95.8125 C65.30956632 93.49963391 64.23855674 91.18939487 63.16796875 88.87890625 C61.04050059 84.26403773 58.91938945 79.64628552 56.80078125 75.02734375 C50.10847603 60.41585271 50.10847603 60.41585271 43.01098633 45.99902344 C41.02444354 42.09884793 39.12853533 38.16569245 37.27734375 34.19921875 C36.55720093 32.66334106 36.55720093 32.66334106 35.82250977 31.09643555 C34.88441522 29.08971382 33.95345101 27.07963718 33.03100586 25.06567383 C29.45730218 17.44305046 25.63885963 9.31239193 17.56640625 5.7421875 C11.86027553 4.09201271 5.89466155 3.58332588 0 3 C0 2.01 0 1.02 0 0 Z " fill="#020202" transform="translate(147,124)"/>
<path d="M0 0 C11.55 0 23.1 0 35 0 C35 0.99 35 1.98 35 3 C34.01 3.09796875 33.02 3.1959375 32 3.296875 C20.02478114 4.36598894 20.02478114 4.36598894 10.32250977 10.83105469 C5.8914775 16.46485959 2.54184974 22.23913478 -0.5625 28.6875 C-1.03719727 29.65429688 -1.51189453 30.62109375 -2.00097656 31.6171875 C-5.08358088 37.94719609 -7.93430475 44.33491904 -10.63671875 50.8359375 C-12.00074482 54.00172866 -13.49670828 57.05437196 -15.0625 60.125 C-18.57962459 67.05102996 -21.8618756 74.07607375 -25.125 81.125 C-25.40146362 81.7220575 -25.67792725 82.31911499 -25.96276855 82.93426514 C-28.55731436 88.53891144 -31.14518369 94.14663513 -33.73193359 99.75488281 C-34.87257952 102.22764485 -36.01453713 104.69979415 -37.15771484 107.17138672 C-38.2188806 109.46624769 -39.27798628 111.76206305 -40.33447266 114.05908203 C-40.82866699 115.12755371 -41.32286133 116.19602539 -41.83203125 117.296875 C-42.5748938 118.9533606 -42.5748938 118.9533606 -43.33276367 120.64331055 C-45 124 -45 124 -47.14575195 127.14770508 C-56.04111191 140.64456479 -53.93838236 157.30480442 -53.60760498 172.79296875 C-53.54710406 176.00483894 -53.52100154 179.21657093 -53.49662876 182.42888927 C-53.44620077 189.07043291 -53.37365451 195.71186412 -53.24047852 202.35229492 C-53.21856949 203.51871017 -53.19666046 204.68512543 -53.17408752 205.8868866 C-53.01702333 208.69558103 -52.63633132 211.26489453 -52 214 C-51.34 214 -50.68 214 -50 214 C-50 214.66 -50 215.32 -50 216 C-44.72 216.33 -39.44 216.66 -34 217 C-34 218.32 -34 219.64 -34 221 C-68.98 221 -103.96 221 -140 221 C-139.505 219.02 -139.505 219.02 -139 217 C-139 217.99 -139 218.98 -139 220 C-115.57 220 -92.14 220 -68 220 C-68 219.01 -68 218.02 -68 217 C-68.79664063 217.03480469 -69.59328125 217.06960938 -70.4140625 217.10546875 C-81.72943995 217.39454774 -81.72943995 217.39454774 -86 214 C-89.86126114 207.38204099 -89.6355468 200.47766507 -89.8203125 192.96875 C-89.83894222 192.28986725 -89.85757195 191.6109845 -89.8767662 190.91152954 C-90.01379648 185.7746239 -90.08247677 180.6384764 -90.125 175.5 C-90.13249268 174.74971527 -90.13998535 173.99943054 -90.14770508 173.22640991 C-90.34558415 150.45718618 -89.02893715 132.04363169 -75.81591797 112.76123047 C-73.17399106 108.74399554 -71.37106478 104.50096988 -69.5625 100.0625 C-67.30282761 94.82901067 -64.90093481 89.70353286 -62.3125 84.625 C-58.59866667 77.32923523 -55.12955339 69.92743046 -51.6875 62.5 C-51.40973724 61.90134125 -51.13197449 61.3026825 -50.84579468 60.68588257 C-47.84830234 54.2225092 -44.87860204 47.74778151 -41.96484375 41.24609375 C-41.4850708 40.18132812 -41.00529785 39.1165625 -40.51098633 38.01953125 C-39.62186933 36.04239316 -38.73957446 34.06216474 -37.8659668 32.078125 C-33.09658387 21.4874699 -27.06411935 9.23110259 -16 4.06640625 C-10.80920926 2.54893718 -5.35850119 2.80235037 0 3 C0 2.01 0 1.02 0 0 Z " fill="#B3B3B3" transform="translate(354,124)"/>
<path d="M0 0 C11.55 0 23.1 0 35 0 C35 0.99 35 1.98 35 3 C33.91460937 3.13277344 32.82921875 3.26554687 31.7109375 3.40234375 C30.26561678 3.58066254 28.82030474 3.75905169 27.375 3.9375 C26.66214844 4.02451172 25.94929688 4.11152344 25.21484375 4.20117188 C21.12408039 4.70782605 17.06157365 5.2889043 13 6 C13 6.66 13 7.32 13 8 C12.01 8 11.02 8 10 8 C9.06407759 18.43380174 11.33778859 25.76471133 16 35 C16.59814536 36.21069598 17.19579615 37.42163642 17.79296875 38.6328125 C19.08986529 41.24630699 20.40330078 43.85090819 21.72265625 46.453125 C36.9139975 76.57821224 36.9139975 76.57821224 41.96484375 89.4609375 C42.94373519 92.1114676 42.94373519 92.1114676 44.77880859 94.62988281 C46.08804989 98.24299095 46.11413994 98.64805621 44.7800293 101.98583984 C44.06913771 103.48930981 43.33216654 104.98063215 42.57421875 106.4609375 C42.19264114 107.25150543 41.81106354 108.04207336 41.41792297 108.8565979 C40.19645387 111.37419953 38.94275485 113.87409991 37.6875 116.375 C36.85264069 118.08096759 36.01993173 119.78798931 35.18945312 121.49609375 C33.15103381 125.67669457 31.08356478 129.84172726 29 134 C26.17680796 132.58840398 25.85018403 130.87339865 24.55859375 128.0078125 C24.06576904 126.92741699 23.57294434 125.84702148 23.06518555 124.73388672 C22.52804932 123.5429541 21.99091309 122.35202148 21.4375 121.125 C20.2707513 118.56534494 19.09743607 116.00874359 17.921875 113.453125 C17.61126633 112.7773642 17.30065765 112.10160339 16.9806366 111.40536499 C13.17764799 103.16662655 9.17646876 95.0247966 5.1875 86.875 C0.47335453 77.2346706 -4.19248121 67.59853247 -8.45605469 57.74804688 C-10.5026898 53.0386858 -12.73502487 48.45157665 -15.0625 43.875 C-27.5868687 19.06658258 -27.5868687 19.06658258 -26 11 C-22.94752633 6.31954037 -18.9834086 4.88674206 -13.78125 3.4921875 C-9.18178644 2.67823749 -4.65104338 2.76125823 0 3 C0 2.01 0 1.02 0 0 Z " fill="#B5B5B5" transform="translate(237,124)"/>
<path d="M0 0 C3.12291165 1.68012647 5.39164837 3.78329674 7 7 C7.65146853 13.10203633 6.70124838 17.93152799 4 23.4375 C3.6596875 24.16775391 3.319375 24.89800781 2.96875 25.65039062 C2.15633928 27.38636962 1.33524261 29.11829734 0.5078125 30.84716797 C-1.28201957 34.58970219 -3.04807411 38.34309486 -4.8125 42.09765625 C-6.9147962 46.56952782 -9.0183502 51.04076797 -11.13037109 55.50805664 C-15.04325663 63.79024562 -18.8796705 72.09519476 -22.54907227 80.48876953 C-24.66284799 85.30549364 -26.97373797 89.98960762 -29.3671875 94.671875 C-31.96525748 99.96746262 -34.33228101 105.36559676 -36.73388672 110.75244141 C-39.33965589 116.5805781 -42.03740728 122.34278777 -45 128 C-48 127 -48 127 -49.54980469 124.42724609 C-52.55887451 118.11290963 -52.55887451 118.11290963 -53.83544922 115.34619141 C-54.74130477 113.39374139 -55.6758924 111.45699898 -56.61328125 109.51953125 C-57.19713008 108.27168214 -57.77921827 107.02300744 -58.359375 105.7734375 C-58.89014648 104.64341309 -59.42091797 103.51338867 -59.96777344 102.34912109 C-61.96071219 95.88291159 -59.792961 90.95578029 -56.96484375 85.07421875 C-56.65441635 84.42142441 -56.34398895 83.76863007 -56.02415466 83.09605408 C-55.00395937 80.95559005 -53.97078114 78.82167342 -52.9375 76.6875 C-52.21923588 75.18650322 -51.50196682 73.68502992 -50.78564453 72.18310547 C-49.28935894 69.04752162 -47.78875847 65.91405395 -46.28564453 62.78173828 C-44.02988717 58.07262406 -41.80521917 53.34931714 -39.58984375 48.62109375 C-39.23407761 47.86211288 -38.87831146 47.10313202 -38.51176453 46.32115173 C-37.13348508 43.37992509 -35.75579996 40.43842062 -34.37863159 37.49667358 C-32.2674713 32.9905112 -30.14039077 28.4923583 -28 24 C-27.4630249 22.86481934 -26.9260498 21.72963867 -26.37280273 20.56005859 C-23.80223408 15.24621948 -21.40433849 10.64536548 -17.3125 6.375 C-16.56613281 5.57835937 -15.81976563 4.78171875 -15.05078125 3.9609375 C-10.33485183 -0.5483893 -6.28848706 -0.98623788 0 0 Z " fill="#FCFCFC" transform="translate(346,129)"/>
<path d="M0 0 C20.79 0 41.58 0 63 0 C63 0.99 63 1.98 63 3 C61.99839844 3.09796875 60.99679687 3.1959375 59.96484375 3.296875 C49.72901794 4.40018386 42.67295378 5.96990011 35.8984375 14.29492188 C33.71696047 17.40330221 32.02913567 20.65121836 30.37109375 24.0546875 C30.02900879 24.74813263 29.68692383 25.44157776 29.33447266 26.15603638 C25.39429292 34.17374345 21.54704293 42.23674549 17.71826172 50.30810547 C16.50383095 52.86692814 15.28526567 55.42375319 14.06640625 57.98046875 C9.81627067 66.91753096 5.65576997 75.88378876 1.69604492 84.9538269 C-0.33512504 89.58931132 -2.51740101 94.11383608 -4.8125 98.625 C-10.21600367 109.25568636 -15.08092431 120.138855 -20 131 C-20.99 130.01 -21.98 129.02 -23 128 C-16.00993802 112.99056293 -9.00308801 97.98937813 -1.94451904 83.01202393 C3.43264599 71.60098816 8.7989693 60.18500422 14.125 48.75 C14.63297119 47.66315918 15.14094238 46.57631836 15.66430664 45.45654297 C17.12599169 42.31155079 18.56881738 39.1589859 20 36 C20.27249573 35.40197571 20.54499146 34.80395142 20.82574463 34.18780518 C21.67000148 32.32486624 22.50068737 30.4563994 23.328125 28.5859375 C23.82473633 27.4726709 24.32134766 26.3594043 24.83300781 25.21240234 C26.56959603 20.4320618 27.01235055 15.99132837 26 11 C23.3583653 6.66771909 19.74401788 6.21011025 15 5 C12.36331422 4.53669711 9.72018783 4.19319226 7.0625 3.875 C6.37865234 3.78863281 5.69480469 3.70226562 4.99023438 3.61328125 C3.32742954 3.40397715 1.66379487 3.20128278 0 3 C0 2.01 0 1.02 0 0 Z " fill="#090909" transform="translate(291,124)"/>
<path d="M0 0 C11.55 0 23.1 0 35 0 C35 0.99 35 1.98 35 3 C33.515 3.14695312 33.515 3.14695312 32 3.296875 C19.83818332 4.42574982 19.83818332 4.42574982 10.07421875 11.12109375 C7.72783469 14.079578 5.57367509 17.13429909 3.48828125 20.28125 C2.99714844 20.8484375 2.50601562 21.415625 2 22 C1.01 22 0.02 22 -1 22 C-1.03867187 21.00419922 -1.03867187 21.00419922 -1.078125 19.98828125 C-1.34096278 15.89637498 -1.65122546 12.69754908 -3.5 9 C-7.0252491 6.17980072 -10.5983762 5.630147 -15 5 C-15 4.67 -15 4.34 -15 4 C-10.03926578 2.67713754 -5.08888488 2.91106803 0 3 C0 2.01 0 1.02 0 0 Z " fill="#B4B4B4" transform="translate(354,124)"/>
<path d="M0 0 C0.99 0 1.98 0 3 0 C2.42752791 5.3571169 0.5777043 9.49445269 -1.75390625 14.265625 C-2.13304672 15.0578949 -2.51218719 15.85016479 -2.90281677 16.66644287 C-4.11560247 19.19778415 -5.33846455 21.72408209 -6.5625 24.25 C-8.15084014 27.54510205 -9.73468591 30.84234071 -11.31640625 34.140625 C-11.90384865 35.3632756 -11.90384865 35.3632756 -12.50315857 36.61062622 C-15.55806491 42.99897274 -18.47049794 49.44345922 -21.30055237 55.93438721 C-23.33158992 60.57740173 -25.51377076 65.10795809 -27.8125 69.625 C-33.21600367 80.25568636 -38.08092431 91.138855 -43 102 C-43.99 101.01 -44.98 100.02 -46 99 C-39.00964404 83.98993169 -32.00250854 68.98811013 -24.94369507 54.01010132 C-19.49883092 42.45634104 -14.07094051 30.89502441 -8.6875 19.3125 C-8.15439209 18.16700684 -7.62128418 17.02151367 -7.07202148 15.84130859 C-4.63612157 10.59151745 -2.23737757 5.33763455 0 0 Z " fill="#131313" transform="translate(314,153)"/>
<path d="M0 0 C0.66 0 1.32 0 2 0 C3.37990741 2.75981482 3.13483711 4.99411788 3.14526367 8.08276367 C3.15483345 10.00066963 3.15483345 10.00066963 3.16459656 11.95732117 C3.16612581 13.36086998 3.16723946 14.7644193 3.16796875 16.16796875 C3.17118218 17.60565728 3.17454632 19.04334548 3.17805481 20.48103333 C3.18404986 23.49981442 3.18589449 26.51856688 3.18530273 29.53735352 C3.18520145 33.39293276 3.19881654 37.24832642 3.21607494 41.10386181 C3.22723605 44.07655162 3.22922063 47.04919729 3.22869301 50.0219059 C3.22986836 51.44237211 3.23426504 52.86283964 3.24202538 54.28328514 C3.25190144 56.27892024 3.24766347 58.27460978 3.24291992 60.27026367 C3.24434494 61.403405 3.24576996 62.53654633 3.24723816 63.70402527 C2.968415 67.42106512 2.13266636 70.4583051 1 74 C-2.43768841 70.56231159 -2.12997689 67.28754275 -2.14526367 62.6484375 C-2.15164352 61.33697754 -2.15802338 60.02551758 -2.16459656 58.67431641 C-2.16612504 57.24121131 -2.16723911 55.80810572 -2.16796875 54.375 C-2.17118182 52.90673795 -2.17454593 51.43847622 -2.17805481 49.97021484 C-2.18404174 46.89354713 -2.1858951 43.8169075 -2.18530273 40.74023438 C-2.185201 36.79573284 -2.19886683 32.85141084 -2.21607494 28.9069519 C-2.22718525 25.8752357 -2.22922226 22.84356309 -2.22869301 19.81182861 C-2.22987407 18.35735453 -2.23430288 16.90287935 -2.24202538 15.44842529 C-2.25180753 13.41616122 -2.24768757 11.38384453 -2.24291992 9.3515625 C-2.24434494 8.19479004 -2.24576996 7.03801758 -2.24723816 5.84619141 C-2 3 -2 3 0 0 Z " fill="#EBEBEB" transform="translate(267,262)"/>
<path d="M0 0 C0.7425 0.309375 1.485 0.61875 2.25 0.9375 C7.44702225 2.40998964 12.62487263 2.66949055 18 3 C18 3.99 18 4.98 18 6 C10.74 6 3.48 6 -4 6 C-2.68 4.02 -1.36 2.04 0 0 Z " fill="#0C0C0C" transform="translate(268,338)"/>
<path d="M0 0 C1.77503906 0.03480469 1.77503906 0.03480469 3.5859375 0.0703125 C5.36871094 0.09738281 5.36871094 0.09738281 7.1875 0.125 C8.10273438 0.14820313 9.01796875 0.17140625 9.9609375 0.1953125 C9.9609375 1.5153125 9.9609375 2.8353125 9.9609375 4.1953125 C-0.9290625 4.1953125 -11.8190625 4.1953125 -23.0390625 4.1953125 C-23.0390625 3.8653125 -23.0390625 3.5353125 -23.0390625 3.1953125 C-21.76289063 3.14632813 -20.48671875 3.09734375 -19.171875 3.046875 C-17.50258178 2.97185059 -15.83331204 2.89630262 -14.1640625 2.8203125 C-13.32230469 2.789375 -12.48054688 2.7584375 -11.61328125 2.7265625 C-10.80761719 2.68789063 -10.00195312 2.64921875 -9.171875 2.609375 C-8.42824707 2.5779541 -7.68461914 2.5465332 -6.91845703 2.51416016 C-3.7631325 1.97884529 -3.53811654 0.22738538 0 0 Z " fill="#C6C6C6" transform="translate(310.0390625,340.8046875)"/>
<path d="M0 0 C2.59271502 1.29635751 2.89542164 2.47928245 4.12890625 5.078125 C4.52400391 5.90957031 4.91910156 6.74101562 5.32617188 7.59765625 C5.73416016 8.47292969 6.14214844 9.34820312 6.5625 10.25 C7.1802832 11.53970703 7.1802832 11.53970703 7.81054688 12.85546875 C9.72668792 16.92609245 11.24319313 20.53892633 12 25 C9.53672089 22.77264682 8.15864556 20.64835747 6.73828125 17.65625 C6.34189453 16.82222656 5.94550781 15.98820313 5.53710938 15.12890625 C5.13298828 14.26136719 4.72886719 13.39382812 4.3125 12.5 C3.68891602 11.19869141 3.68891602 11.19869141 3.05273438 9.87109375 C0 3.38465979 0 3.38465979 0 0 Z " fill="#DEDEDE" transform="translate(212,144)"/>
<path d="M0 0 C-0.33 0.66 -0.66 1.32 -1 2 C-0.34 2.33 0.32 2.66 1 3 C-3.62 3 -8.24 3 -13 3 C-13 2.01 -13 1.02 -13 0 C-11.20909747 -0.19466332 -9.41723495 -0.38051213 -7.625 -0.5625 C-6.12839844 -0.71912109 -6.12839844 -0.71912109 -4.6015625 -0.87890625 C-2 -1 -2 -1 0 0 Z " fill="#0F0F0F" transform="translate(228,341)"/>
<path d="M0 0 C0.99 0 1.98 0 3 0 C2.45660208 4.56454251 1.20536179 7.9728176 -1 12 C-1.99 12 -2.98 12 -4 12 C-3.33501617 7.61110675 -1.81242323 4.0188515 0 0 Z " fill="#111111" transform="translate(314,153)"/>
<path d="M0 0 C0.66 0 1.32 0 2 0 C2.6875 2.25 2.6875 2.25 3 5 C1.5625 7.3125 1.5625 7.3125 0 9 C-1.125 6.75 -1.125 6.75 -2 4 C-1.125 1.6875 -1.125 1.6875 0 0 Z " fill="#AEAEAE" transform="translate(266,247)"/>
<path d="M0 0 C0.99 0.66 1.98 1.32 3 2 C2.01 4.31 1.02 6.62 0 9 C-0.99 7.68 -1.98 6.36 -3 5 C-2.01 3.35 -1.02 1.7 0 0 Z " fill="#ADADAD" transform="translate(276,228)"/>
<path d="M0 0 C1 3 1 3 -0.3125 5.6875 C-0.869375 6.450625 -1.42625 7.21375 -2 8 C-2.66 8 -3.32 8 -4 8 C-3.6875 5.125 -3.6875 5.125 -3 2 C-2.01 1.34 -1.02 0.68 0 0 Z " fill="#0D0D0D" transform="translate(301,186)"/>
<path d="M0 0 C-0.99 1.485 -0.99 1.485 -2 3 C-5.3 2.67 -8.6 2.34 -12 2 C-12 1.67 -12 1.34 -12 1 C-7.9472484 0.01751476 -4.16138263 -0.08159574 0 0 Z " fill="#A4A4A4" transform="translate(351,127)"/>
<path d="M0 0 C1 3 1 3 0.0625 5.1875 C-0.4634375 6.0846875 -0.4634375 6.0846875 -1 7 C-1.99 7 -2.98 7 -4 7 C-3.39816251 4.97954558 -2.72693904 2.97888961 -2 1 C-1.34 0.67 -0.68 0.34 0 0 Z " fill="#0A0A0A" transform="translate(288,213)"/>
<path d="M0 0 C0.625 1.875 0.625 1.875 1 4 C-1 6 -1 6 -4 7 C-3.6875 4.625 -3.6875 4.625 -3 2 C-2.01 1.34 -1.02 0.68 0 0 Z " fill="#1D1D1D" transform="translate(303,181)"/>
<path d="M0 0 C4.23830976 2.82553984 3.97715348 5.12180888 5 10 C2.66063182 7.87330165 1.19346152 5.93775144 0 3 C0 2.01 0 1.02 0 0 Z " fill="#E6E6E6" transform="translate(219,159)"/>
<path d="M0 0 C1.65 0.33 3.3 0.66 5 1 C4.01 1.33 3.02 1.66 2 2 C1.67 2.99 1.34 3.98 1 5 C0.01 5 -0.98 5 -2 5 C-1.34 3.35 -0.68 1.7 0 0 Z " fill="#A1A1A1" transform="translate(213,132)"/>
</svg>
